<svg id="Layer_1" data-name="Layer 1" xmlns="http://www.w3.org/2000/svg" viewBox="0 0 57.61 67.98"><defs><style>.cls-1{fill:none;stroke:#fff;stroke-miterlimit:10;stroke-width:5.67px;}</style></defs><g id="pause"><g id="Group_2" data-name="Group 2"><g id="Group_1" data-name="Group 1"><path id="Path_1" data-name="Path 1" class="cls-1" d="M17.37.5h-13A3.89,3.89,0,0,0,.48,4.39h0V58.91a3.9,3.9,0,0,0,3.89,3.9h13a3.92,3.92,0,0,0,3.9-3.9V4.39A3.9,3.9,0,0,0,17.37.5Z" transform="translate(2.35 2.33)"/></g></g><g id="Group_4" data-name="Group 4"><g id="Group_3" data-name="Group 3"><path id="Path_2" data-name="Path 2" class="cls-1" d="M48.53.5h-13a3.89,3.89,0,0,0-3.89,3.89h0V58.91a3.91,3.91,0,0,0,3.89,3.9h13a3.91,3.91,0,0,0,3.89-3.9V4.39A3.89,3.89,0,0,0,48.53.5Z" transform="translate(2.35 2.33)"/></g></g></g></svg>