<svg id="Layer_1" data-name="Layer 1" xmlns="http://www.w3.org/2000/svg" viewBox="0 0 51.92 62.31"><defs><style>.cls-1{fill:#fff;}</style></defs><g id="pause"><g id="Group_2" data-name="Group 2"><g id="Group_1" data-name="Group 1"><path id="Path_1" data-name="Path 1" class="cls-1" d="M288.48,389.87h-13a3.89,3.89,0,0,0-3.89,3.89v54.52a3.9,3.9,0,0,0,3.89,3.9h13a3.92,3.92,0,0,0,3.9-3.9V393.76A3.9,3.9,0,0,0,288.48,389.87Z" transform="translate(-271.61 -389.87)"/></g></g><g id="Group_4" data-name="Group 4"><g id="Group_3" data-name="Group 3"><path id="Path_2" data-name="Path 2" class="cls-1" d="M319.64,389.87h-13a3.89,3.89,0,0,0-3.89,3.89v54.52a3.91,3.91,0,0,0,3.89,3.9h13a3.91,3.91,0,0,0,3.89-3.9V393.76A3.89,3.89,0,0,0,319.64,389.87Z" transform="translate(-271.61 -389.87)"/></g></g></g></svg>